<svg viewBox="0 0 100 100" xmlns="http://www.w3.org/2000/svg"><defs><linearGradient id="lg0" x1="0" y1="0" x2="1" y2="1"><stop offset="0" stop-color="#7BE3A5"/><stop offset="1" stop-color="#2FA596"/></linearGradient></defs><circle cx="50" cy="50" r="47.5" fill="#151A1F" stroke="url(#lg0)" stroke-width="2.5"/><path d="M413 -92Q315 -92 233.5 -63.0Q152 -34 102.0 22.5Q52 79 47 162Q45 196 58.0 237.0Q71 278 94.5 318.5Q118 359 150.5 391.5Q183 424 220 441Q223 443 229.5 444.0Q236 445 239 445Q245 445 245 442Q245 437 230 426Q188 393 161 350Q133 307 119.0 258.0Q105 209 105 159Q105 100 130.5 57.5Q156 15 199.0 -12.5Q242 -40 297.0 -53.0Q352 -66 412 -66Q479 -66 544.5 -51.0Q610 -36 664 -8Q747 36 795.5 101.0Q844 166 844 230Q844 264 829.5 295.0Q815 326 783 351Q759 370 724.5 387.0Q690 404 651.5 420.0Q613 436 576.0 452.5Q539 469 511 488Q471 515 452.5 546.0Q434 577 434 608Q434 645 455.5 680.0Q477 715 514.5 743.5Q552 772 599 788Q640 802 688.5 810.0Q737 818 784 818Q823 818 858.5 812.5Q894 807 921 793Q955 777 973.0 750.5Q991 724 991 695Q991 655 955 625Q942 615 926.0 606.5Q910 598 888 592Q884 591 879 591Q867 591 867 598Q867 602 873.5 606.5Q880 611 893 612Q923 616 938.5 635.0Q954 654 954 679Q954 705 936.5 730.5Q919 756 883.0 773.5Q847 791 791 791Q759 791 720.5 784.0Q682 777 637 761Q582 742 545.5 705.0Q509 668 509 626Q509 600 526.5 573.5Q544 547 583 523Q616 503 658.0 483.5Q700 464 743.0 444.5Q786 425 821 403Q876 369 900.0 330.0Q924 291 924 250Q924 202 895.5 153.5Q867 105 821.0 62.5Q775 20 720 -13Q656 -51 575.5 -71.5Q495 -92 413 -92Z" transform="matrix(0.0593 0 -0.0240 -0.0593 24.913 78.501)" fill="url(#lg0)"/><path d="M301 288 451 518Q480 565 472.0 589.0Q464 613 419 613Q417 613 417.0 619.0Q417 625 419 625Q446 625 471.0 623.5Q496 622 536 622Q561 622 576.5 623.5Q592 625 614 625Q616 625 616.0 619.0Q616 613 614 613Q590 613 565.0 601.0Q540 589 517.5 567.0Q495 545 475 514L318 273ZM290 272 110 536Q82 579 57.0 596.0Q32 613 -1 613Q-4 613 -4.0 619.0Q-4 625 -1 625Q16 625 35.0 623.5Q54 622 70 622Q97 622 122.5 622.5Q148 623 170.5 624.0Q193 625 210 625Q212 625 212.0 619.0Q212 613 210 613Q171 613 161.5 602.0Q152 591 168 568L339 317ZM276 310 341 319V81Q341 52 347.0 37.0Q353 22 371.0 17.0Q389 12 426 12Q429 12 429.0 6.0Q429 0 426 0Q402 0 372.5 1.0Q343 2 308 2Q275 2 244.0 1.0Q213 0 190 0Q187 0 187.0 6.0Q187 12 190 12Q226 12 245.0 17.0Q264 22 270.0 37.0Q276 52 276 81Z" transform="matrix(0.0726 0 -0.0000 -0.0864 27.792 71.000)" fill="#EEF1F3"/></svg>